<svg xmlns="http://www.w3.org/2000/svg" width="512" height="512" viewBox="0 0 512 512" version="1.1">
	<path d="M 101 0.654 C 82.078 4.468, 53.151 16.952, 33.997 29.571 C 19.719 38.978, 9.813 53.315, 9.620 64.853 C 9.531 70.214, 10.012 71.361, 19.129 87.500 C 30.113 106.946, 37.514 119.267, 55.169 147.500 C 74.101 177.775, 90.840 208.645, 94.482 220 C 95.452 223.025, 96.561 225.848, 96.946 226.274 C 97.332 226.699, 98.847 225.361, 100.314 223.299 C 104.895 216.860, 117.977 204.265, 125.395 199.152 C 144.033 186.303, 162.213 180.458, 187.662 179.133 L 199.824 178.500 193.951 168.074 C 189.347 159.900, 186.539 152.883, 180.944 135.574 C 156.981 61.442, 144.247 24.415, 139.447 14.910 C 136.785 9.639, 131.581 4.714, 126.213 2.385 C 122.478 0.764, 106.048 -0.364, 101 0.654 M 484 167.106 C 484 167.714, 484.739 170.976, 485.643 174.356 C 487.908 182.826, 487.891 197.835, 485.608 205.457 C 480.176 223.593, 470.377 235.316, 436.498 264.209 C 427.147 272.184, 417.765 280.625, 415.649 282.967 C 404.571 295.229, 405.693 308.020, 418.922 320.267 C 422.106 323.215, 430.963 329.638, 438.605 334.541 C 458.257 347.148, 466.449 353.362, 470.985 359.100 C 474.776 363.897, 476.983 369.203, 476.994 373.554 C 477.005 377.549, 471.881 385.797, 465.730 391.684 C 454.430 402.500, 441.935 408.629, 407 420.493 C 362.675 435.547, 351.247 442.769, 357.539 451.753 C 359.636 454.746, 368.934 460.060, 378.544 463.756 C 386.097 466.661, 396.281 469.322, 423.500 475.500 C 437.583 478.696, 449.147 482.524, 457.502 486.754 L 463.500 489.791 458 491.370 C 431.153 499.075, 391.090 499.827, 332.559 493.726 L 301.618 490.500 298.896 471.500 C 294.937 443.871, 294.547 435.792, 296.407 420 C 297.282 412.575, 297.998 403.572, 297.999 399.993 C 298 393.552, 297.924 393.372, 290.397 382.109 C 275.748 360.187, 264.794 341.163, 245.808 304.675 C 238.603 290.829, 230.817 275.450, 228.504 270.500 C 223.985 260.828, 222.366 258.887, 216.920 256.611 C 195.731 247.758, 153.493 264.880, 147.984 284.558 C 146.799 288.790, 147.105 289.804, 169.775 356.675 C 185.878 404.172, 193.478 425.277, 195.134 427.091 C 196.518 428.606, 200.407 430.638, 204.500 431.983 C 229.958 440.349, 257.474 460.926, 280.342 488.697 C 286.445 496.108, 290.231 499.103, 291.673 497.660 C 292.587 496.747, 243.011 386.545, 241.217 385.500 C 240.273 384.950, 237.842 382.824, 235.815 380.776 C 227.532 372.406, 230.494 357.412, 240.018 359.504 C 247.297 361.103, 253.506 372.187, 251.246 379.549 C 250.253 382.785, 251.427 385.745, 273.079 434.634 C 285.664 463.050, 296.225 487.132, 296.548 488.150 C 296.942 489.392, 296.639 490, 295.626 490 C 293.487 490, 292.741 491.647, 293.899 493.811 C 295.400 496.617, 305.926 501.807, 314.626 504.032 C 329.273 507.778, 372.606 511.991, 396.500 511.993 C 418.036 511.994, 435.731 509.983, 468 503.870 C 487.350 500.204, 489.512 499.015, 488.665 492.500 C 488.248 489.291, 487.130 487.562, 483.013 483.759 C 471.941 473.532, 456.040 466.584, 432 461.470 C 402.163 455.122, 384 450.034, 384 448.024 C 384 447.634, 393.113 443.576, 404.250 439.006 C 456.058 417.747, 484.663 400.972, 496.479 384.922 C 502.520 376.716, 504.008 370.045, 501.545 362.206 C 500.076 357.527, 498.465 355.231, 492.598 349.448 C 486.104 343.048, 483.476 341.395, 464.127 331.541 C 448.109 323.384, 441.612 319.518, 437.989 315.989 C 425.481 303.807, 430.010 293.468, 456.500 273.729 C 463.100 268.811, 470.455 262.923, 472.844 260.644 C 482.942 251.011, 491.432 237.105, 494.645 224.937 C 497.247 215.084, 496.870 199.822, 493.730 187.922 C 490.759 176.663, 484 162.202, 484 167.106 M 178.520 188.115 C 162.511 190.446, 145.303 196.810, 132.473 205.144 C 124.095 210.586, 111.520 222.177, 105.485 230.020 L 101.094 235.726 105.888 253.883 C 111.091 273.584, 113.334 277.890, 120.089 281.142 C 121.965 282.046, 124.986 284.636, 126.802 286.899 C 130.496 291.501, 135.887 294.639, 141.696 295.567 L 145.576 296.188 145.187 289.298 C 144.690 280.516, 147.176 274.825, 154.309 268.412 C 160.453 262.888, 176.526 254.892, 187.500 251.899 C 196.574 249.425, 207.425 248.993, 213.807 250.853 C 216.175 251.543, 219.889 253.712, 222.060 255.673 C 225.508 258.788, 226.216 259.066, 227.662 257.870 C 232.380 253.965, 234.166 244.020, 231.495 236.520 C 230.715 234.331, 230.334 231.518, 230.647 230.270 C 231.624 226.376, 230.263 223.553, 222.141 212.627 C 217.808 206.800, 212.067 198.656, 209.382 194.529 L 204.500 187.026 194.500 187.135 C 189 187.195, 181.809 187.636, 178.520 188.115" stroke="none" fill="black" fill-rule="evenodd"/>
</svg>